<svg width="131" height="43" viewBox="0 0 131 43" fill="none" xmlns="http://www.w3.org/2000/svg">
<g clip-path="url(#clip0_1_41)">
<path d="M122.16 0H8.05005C3.63177 0 0.0500488 3.58172 0.0500488 8V34.59C0.0500488 39.0083 3.63177 42.59 8.05005 42.59H122.16C126.578 42.59 130.16 39.0083 130.16 34.59V8C130.16 3.58172 126.578 0 122.16 0Z" fill="white"/>
<path d="M88.4401 15.44V17.88H86.9001V19.48H88.4501V24.92C88.4501 26.78 89.3101 27.52 91.4501 27.52C91.8401 27.52 92.2001 27.47 92.5101 27.42V25.84C92.2645 25.8691 92.0173 25.8825 91.7701 25.88C90.8101 25.88 90.3901 25.44 90.3901 24.43V19.48H92.5101V17.88H90.3901V15.44H88.4501H88.4401ZM97.9801 27.65C100.84 27.65 102.6 25.77 102.6 22.65C102.6 19.55 100.83 17.65 97.9801 17.65C95.1201 17.65 93.3501 19.55 93.3501 22.65C93.3501 25.77 95.1101 27.65 97.9801 27.65ZM97.9801 25.96C96.3001 25.96 95.3501 24.76 95.3501 22.65C95.3501 20.56 96.3001 19.35 97.9801 19.35C99.6501 19.35 100.61 20.56 100.61 22.65C100.61 24.75 99.6501 25.96 97.9801 25.96ZM104.1 27.47H106.03V21.78C106.03 20.43 107.07 19.52 108.53 19.52C108.88 19.52 109.45 19.58 109.62 19.63V17.76C109.333 17.7049 109.042 17.6781 108.75 17.68C107.47 17.68 106.39 18.38 106.11 19.32H105.96V17.84H104.1V27.47ZM114.42 19.27C115.85 19.27 116.79 20.25 116.83 21.77H111.88C111.99 20.27 112.98 19.27 114.42 19.27ZM116.82 24.87C116.46 25.62 115.66 26.03 114.49 26.03C112.94 26.03 111.94 24.96 111.89 23.28V23.17H118.8V22.51C118.8 19.48 117.16 17.65 114.43 17.65C111.67 17.65 109.91 19.61 109.91 22.68C109.91 25.76 111.63 27.65 114.44 27.65C116.68 27.65 118.24 26.59 118.69 24.87H116.82ZM75.7501 23.91C75.9001 26.27 77.9101 27.79 80.8901 27.79C84.0901 27.79 86.0801 26.2 86.0801 23.67C86.0801 21.68 84.9401 20.59 82.1801 19.95L80.7001 19.6C78.9401 19.2 78.2301 18.65 78.2301 17.7C78.2301 16.52 79.3301 15.74 80.9901 15.74C82.5501 15.74 83.6401 16.5 83.8301 17.72H85.8601C85.7401 15.49 83.7501 13.92 81.0101 13.92C78.0801 13.92 76.1101 15.49 76.1101 17.85C76.1101 19.79 77.2301 20.95 79.6601 21.5L81.4001 21.91C83.1801 22.33 83.9601 22.93 83.9601 23.94C83.9601 25.11 82.7301 25.96 81.0601 25.96C79.2601 25.96 78.0001 25.16 77.8201 23.91H75.7501V23.91ZM55.7001 17.68C54.3801 17.68 53.2201 18.34 52.6301 19.43H52.4901V17.84H50.6201V30.66H52.5601V26.01H52.7101C53.2201 27.02 54.3301 27.62 55.7301 27.62C58.2001 27.62 59.7801 25.71 59.7801 22.65C59.7801 19.59 58.2001 17.68 55.7101 17.68H55.7001ZM55.1601 25.92C53.5401 25.92 52.5201 24.66 52.5201 22.66C52.5201 20.64 53.5401 19.39 55.1701 19.39C56.8101 19.39 57.7901 20.62 57.7901 22.65C57.7901 24.69 56.8101 25.92 55.1601 25.92V25.92ZM66.5501 17.68C65.2201 17.68 64.0601 18.34 63.4701 19.43H63.3301V17.84H61.4601V30.66H63.4001V26.01H63.5501C64.0601 27.02 65.1701 27.62 66.5701 27.62C69.0401 27.62 70.6201 25.71 70.6201 22.65C70.6201 19.59 69.0401 17.68 66.5501 17.68ZM66.0001 25.92C64.3801 25.92 63.3601 24.66 63.3601 22.66C63.3601 20.64 64.3801 19.39 66.0101 19.39C67.6501 19.39 68.6301 20.62 68.6301 22.65C68.6301 24.69 67.6501 25.92 66.0001 25.92V25.92ZM47.1501 27.47H49.3701L44.5101 14.25H42.2601L37.4001 27.47H39.5501L40.7901 23.96H45.9201L47.1501 27.46V27.47ZM43.2801 16.65H43.4401L45.3901 22.23H41.3201L43.2801 16.65V16.65ZM26.9001 21.62C26.9182 20.7256 27.1625 19.8502 27.6101 19.0756C28.0577 18.301 28.6941 17.6523 29.4601 17.19C28.9605 16.5028 28.311 15.9385 27.5607 15.54C26.8104 15.1414 25.9791 14.9191 25.1301 14.89C23.3101 14.71 21.5501 15.97 20.6201 15.97C19.6701 15.97 18.2401 14.92 16.7101 14.95C15.7219 14.9816 14.758 15.2645 13.9095 15.7719C13.0609 16.2793 12.3556 16.9945 11.8601 17.85C9.76005 21.42 11.3201 26.65 13.3301 29.54C14.3301 30.95 15.5101 32.53 17.0501 32.47C18.5501 32.41 19.1101 31.53 20.9301 31.53C22.7301 31.53 23.2601 32.47 24.8301 32.43C26.4301 32.41 27.4501 31.02 28.4301 29.59C29.1501 28.59 29.7001 27.48 30.0701 26.3C29.1421 25.9151 28.3474 25.2666 27.784 24.4349C27.2206 23.6031 26.9133 22.6245 26.9001 21.62V21.62ZM23.9401 13C24.8164 11.971 25.2512 10.6378 25.1501 9.29001C23.8113 9.42271 22.5703 10.0503 21.6701 11.05C21.2375 11.5355 20.9052 12.1017 20.6924 12.7161C20.4796 13.3306 20.3904 13.981 20.4301 14.63C21.0995 14.6365 21.762 14.4936 22.3692 14.2116C22.9764 13.9296 23.5131 13.5157 23.9401 13Z" fill="black"/>
<path d="M122.16 0H8.05005C3.63177 0 0.0500488 3.58172 0.0500488 8V34.59C0.0500488 39.0083 3.63177 42.59 8.05005 42.59H122.16C126.578 42.59 130.16 39.0083 130.16 34.59V8C130.16 3.58172 126.578 0 122.16 0Z" fill="white"/>
<path d="M88.4401 15.44V17.88H86.9001V19.48H88.4501V24.92C88.4501 26.78 89.3101 27.52 91.4501 27.52C91.8401 27.52 92.2001 27.47 92.5101 27.42V25.84C92.2645 25.8691 92.0173 25.8825 91.7701 25.88C90.8101 25.88 90.3901 25.44 90.3901 24.43V19.48H92.5101V17.88H90.3901V15.44H88.4501H88.4401ZM97.9801 27.65C100.84 27.65 102.6 25.77 102.6 22.65C102.6 19.55 100.83 17.65 97.9801 17.65C95.1201 17.65 93.3501 19.55 93.3501 22.65C93.3501 25.77 95.1101 27.65 97.9801 27.65ZM97.9801 25.96C96.3001 25.96 95.3501 24.76 95.3501 22.65C95.3501 20.56 96.3001 19.35 97.9801 19.35C99.6501 19.35 100.61 20.56 100.61 22.65C100.61 24.75 99.6501 25.96 97.9801 25.96ZM104.1 27.47H106.03V21.78C106.03 20.43 107.07 19.52 108.53 19.52C108.88 19.52 109.45 19.58 109.62 19.63V17.76C109.333 17.7049 109.042 17.6781 108.75 17.68C107.47 17.68 106.39 18.38 106.11 19.32H105.96V17.84H104.1V27.47ZM114.42 19.27C115.85 19.27 116.79 20.25 116.83 21.77H111.88C111.99 20.27 112.98 19.27 114.42 19.27ZM116.82 24.87C116.46 25.62 115.66 26.03 114.49 26.03C112.94 26.03 111.94 24.96 111.89 23.28V23.17H118.8V22.51C118.8 19.48 117.16 17.65 114.43 17.65C111.67 17.65 109.91 19.61 109.91 22.68C109.91 25.76 111.63 27.65 114.44 27.65C116.68 27.65 118.24 26.59 118.69 24.87H116.82ZM75.7501 23.91C75.9001 26.27 77.9101 27.79 80.8901 27.79C84.0901 27.79 86.0801 26.2 86.0801 23.67C86.0801 21.68 84.9401 20.59 82.1801 19.95L80.7001 19.6C78.9401 19.2 78.2301 18.65 78.2301 17.7C78.2301 16.52 79.3301 15.74 80.9901 15.74C82.5501 15.74 83.6401 16.5 83.8301 17.72H85.8601C85.7401 15.49 83.7501 13.92 81.0101 13.92C78.0801 13.92 76.1101 15.49 76.1101 17.85C76.1101 19.79 77.2301 20.95 79.6601 21.5L81.4001 21.91C83.1801 22.33 83.9601 22.93 83.9601 23.94C83.9601 25.11 82.7301 25.96 81.0601 25.96C79.2601 25.96 78.0001 25.16 77.8201 23.91H75.7501V23.91ZM55.7001 17.68C54.3801 17.68 53.2201 18.34 52.6301 19.43H52.4901V17.84H50.6201V30.66H52.5601V26.01H52.7101C53.2201 27.02 54.3301 27.62 55.7301 27.62C58.2001 27.62 59.7801 25.71 59.7801 22.65C59.7801 19.59 58.2001 17.68 55.7101 17.68H55.7001ZM55.1601 25.92C53.5401 25.92 52.5201 24.66 52.5201 22.66C52.5201 20.64 53.5401 19.39 55.1701 19.39C56.8101 19.39 57.7901 20.62 57.7901 22.65C57.7901 24.69 56.8101 25.92 55.1601 25.92V25.92ZM66.5501 17.68C65.2201 17.68 64.0601 18.34 63.4701 19.43H63.3301V17.84H61.4601V30.66H63.4001V26.01H63.5501C64.0601 27.02 65.1701 27.62 66.5701 27.62C69.0401 27.62 70.6201 25.71 70.6201 22.65C70.6201 19.59 69.0401 17.68 66.5501 17.68ZM66.0001 25.92C64.3801 25.92 63.3601 24.66 63.3601 22.66C63.3601 20.64 64.3801 19.39 66.0101 19.39C67.6501 19.39 68.6301 20.62 68.6301 22.65C68.6301 24.69 67.6501 25.92 66.0001 25.92V25.92ZM47.1501 27.47H49.3701L44.5101 14.25H42.2601L37.4001 27.47H39.5501L40.7901 23.96H45.9201L47.1501 27.46V27.47ZM43.2801 16.65H43.4401L45.3901 22.23H41.3201L43.2801 16.65V16.65ZM26.9001 21.62C26.9182 20.7256 27.1625 19.8502 27.6101 19.0756C28.0577 18.301 28.6941 17.6523 29.4601 17.19C28.9605 16.5028 28.311 15.9385 27.5607 15.54C26.8104 15.1414 25.9791 14.9191 25.1301 14.89C23.3101 14.71 21.5501 15.97 20.6201 15.97C19.6701 15.97 18.2401 14.92 16.7101 14.95C15.7219 14.9816 14.758 15.2645 13.9095 15.7719C13.0609 16.2793 12.3556 16.9945 11.8601 17.85C9.76005 21.42 11.3201 26.65 13.3301 29.54C14.3301 30.95 15.5101 32.53 17.0501 32.47C18.5501 32.41 19.1101 31.53 20.9301 31.53C22.7301 31.53 23.2601 32.47 24.8301 32.43C26.4301 32.41 27.4501 31.02 28.4301 29.59C29.1501 28.59 29.7001 27.48 30.0701 26.3C29.1421 25.9151 28.3474 25.2666 27.784 24.4349C27.2206 23.6031 26.9133 22.6245 26.9001 21.62V21.62ZM23.9401 13C24.8164 11.971 25.2512 10.6378 25.1501 9.29001C23.8113 9.42271 22.5703 10.0503 21.6701 11.05C21.2375 11.5355 20.9052 12.1017 20.6924 12.7161C20.4796 13.3306 20.3904 13.981 20.4301 14.63C21.0995 14.6365 21.762 14.4936 22.3692 14.2116C22.9764 13.9296 23.5131 13.5157 23.9401 13Z" fill="black"/>
</g>
<defs>
<clipPath id="clip0_1_41">
<rect width="131" height="43" fill="white"/>
</clipPath>
</defs>
</svg>
