<svg width="222" height="62" viewBox="0 0 222 62" fill="none" xmlns="http://www.w3.org/2000/svg">
<g clip-path="url(#clip0_1_3)">
<path fill-rule="evenodd" clip-rule="evenodd" d="M78.9201 22.704H72.3691L72.2271 22.729V40.997H78.9191C85.2651 40.997 88.104 36.307 88.104 31.657C88.104 27.345 85.2311 22.704 78.9201 22.704V22.704ZM78.9201 25.148C83.5241 25.148 85.5861 28.404 85.5861 31.633C85.5861 34.791 83.8411 38.476 78.9201 38.476H74.7461V25.148H78.9201ZM96.4361 38.962C98.6161 38.942 100.199 37.261 100.199 34.974L100.201 28.022H102.591V40.992H100.387L100.296 39.214C99.2221 40.505 97.7791 41.177 96.0021 41.199H96.0001C92.5601 41.199 90.3351 38.839 90.3351 35.177V28.021H92.7251V35.15C92.7251 37.534 94.1131 38.962 96.4361 38.962V38.962ZM116.571 39.035L115.082 37.545L114.978 37.649C114.167 38.485 113.028 38.94 111.769 38.94C109.587 38.94 107.387 37.573 107.387 34.509C107.387 31.899 109.199 30.075 111.793 30.075C112.957 30.075 114.09 30.527 114.903 31.32L115.006 31.418L116.539 29.827L116.436 29.729C115.124 28.44 113.542 27.786 111.739 27.786C107.687 27.786 104.969 30.486 104.969 34.509C104.969 39.15 108.368 41.226 111.739 41.226C113.618 41.226 115.243 40.556 116.567 39.233L116.67 39.132L116.571 39.035V39.035ZM128.836 28.022V28.352L123.037 34.151L129.552 40.642V41H126.783L121 35.215V41H118.632V22.731H121V33.16L126.011 28.022H128.836V28.022ZM138.14 22.704H131.591L131.445 22.729V40.997H138.133C144.482 40.997 147.321 36.307 147.321 31.657C147.328 27.345 144.453 22.704 138.14 22.704V22.704ZM138.14 25.148C142.744 25.148 144.808 28.404 144.808 31.633C144.808 34.791 143.063 38.476 138.14 38.476H133.968V25.148H138.14ZM155.654 38.962C157.838 38.942 159.42 37.261 159.42 34.974H159.419V28.022H161.811V40.992H159.606L159.513 39.214C158.439 40.505 156.996 41.177 155.22 41.199H155.218C151.78 41.199 149.554 38.839 149.554 35.177V28.021H151.944V35.15C151.944 37.534 153.334 38.962 155.654 38.962V38.962ZM175.793 39.035L174.303 37.545L174.203 37.649C173.391 38.485 172.252 38.94 170.992 38.94C168.811 38.94 166.61 37.573 166.61 34.509C166.61 31.899 168.422 30.075 171.013 30.075C172.173 30.0725 173.288 30.5186 174.126 31.32L174.229 31.418L175.761 29.827L175.657 29.729C174.345 28.44 172.765 27.786 170.961 27.786C166.909 27.786 164.19 30.486 164.19 34.509C164.19 39.15 167.593 41.226 170.961 41.226C172.84 41.226 174.465 40.556 175.789 39.233L175.893 39.132L175.793 39.035V39.035ZM188.056 28.022V28.352L182.257 34.151L188.776 40.642V41H186.006L180.22 35.215V41H177.855V22.731H180.22V33.16L185.233 28.022H188.056V28.022ZM203.412 33.136H197.814V30.873H205.726V38.187L205.689 38.226C203.736 40.315 201.424 41.33 198.623 41.33C191.597 41.33 189.105 36.314 189.105 32.017C189.089 29.227 190.037 26.731 191.767 24.992C193.474 23.277 195.837 22.37 198.597 22.37C201.128 22.37 203.507 23.342 205.3 25.109L205.394 25.201L203.923 26.907L203.816 26.801C202.494 25.528 200.495 24.736 198.599 24.736C193.788 24.736 191.599 28.51 191.599 32.018C191.599 35.462 193.779 38.94 198.648 38.94C200.418 38.94 202.063 38.336 203.412 37.193V33.136V33.136ZM214.365 27.738C210.472 27.738 207.646 30.597 207.646 34.535C207.646 38.413 210.472 41.227 214.365 41.227C218.271 41.227 221.109 38.413 221.109 34.535C221.109 30.532 218.334 27.738 214.365 27.738ZM214.365 38.963C211.857 38.963 210.037 37.108 210.037 34.535C210.037 31.836 211.828 29.952 214.391 29.952C216.913 29.952 218.745 31.879 218.745 34.534C218.716 37.144 216.916 38.963 214.365 38.963V38.963Z" fill="black"/>
<path fill-rule="evenodd" clip-rule="evenodd" d="M31 62C48.12 62 62 48.12 62 31C62 13.88 48.12 0 31 0C13.88 0 0 13.88 0 31C0 48.12 13.88 62 31 62Z" fill="#DE5833"/>
<path d="M31.0059 5.02C16.6539 5.02 5.01794 16.655 5.01794 31.008C5.01794 42.242 12.1469 51.812 22.1279 55.44C20.4909 47.626 17.1379 31.988 16.3119 27.339C15.3819 22.121 16.9419 17.767 20.4739 15.909C20.5879 15.849 20.7139 15.795 20.8509 15.741C20.8989 15.716 20.9439 15.689 20.9909 15.664C22.0909 15.084 23.6209 14.647 25.2839 14.418C22.9339 13.717 19.7229 13.564 17.5559 13.785C17.5459 13.423 17.8809 12.658 18.3299 12.452C18.4969 12.377 18.6819 12.33 18.8759 12.299C19.3499 12.104 19.9529 12.003 20.3959 11.834C19.4879 11.464 18.0439 10.792 17.6649 10.752C17.9749 10.705 18.2049 10.566 18.5879 10.496H18.5789C21.8025 9.94306 25.1183 10.4663 28.0149 11.985C29.4919 12.775 30.5359 13.622 31.1809 14.511C32.8659 14.831 34.3529 15.441 35.3239 16.411C38.3059 19.388 40.9669 26.187 39.8639 30.105C41.8439 29.629 46.1059 28.555 47.3279 27.985C48.6189 27.392 54.0939 28.279 50.2359 30.434C48.5679 31.368 44.0689 33.084 40.8519 34.044C37.6389 35.004 35.6919 33.124 34.6229 34.704C33.7769 35.96 34.4529 37.68 38.2899 38.037C43.4759 38.517 48.4439 35.703 48.9919 37.2C49.5399 38.699 44.5389 40.557 41.4919 40.62C38.4459 40.677 32.3079 38.606 31.3889 37.965L31.3789 37.959C30.7879 40.543 31.5789 44.068 32.7939 47.339C33.8539 47.175 34.9109 47.212 35.0289 47.506C35.0689 47.606 35.1169 47.773 35.1689 47.988C36.4889 47.024 39.8289 44.672 40.7019 44.866C41.7919 45.114 42.0339 52.876 41.0639 53.249C40.3389 53.519 36.9859 52.289 35.3319 51.649C35.2935 51.7393 35.2309 51.8171 35.1509 51.874C35.0929 51.914 35.0249 51.951 34.9509 51.986C34.9409 52.026 34.9309 52.06 34.9179 52.096C35.5029 53.239 36.2669 54.686 37.0929 56.276C48.5079 53.538 56.9949 43.264 56.9949 31.006C56.9949 16.655 45.3589 5.02 31.0059 5.02V5.02Z" fill="#DE5833"/>
<path d="M31.006 0.0140076C13.891 0.0140076 0.0140381 13.891 0.0140381 31.006C0.0140381 46.757 11.764 59.763 26.977 61.737C29.2885 62.0379 31.6264 62.0788 33.947 61.859C49.684 60.377 61.996 47.129 61.996 31.006C61.998 13.891 48.123 0.0140076 31.006 0.0140076ZM36.82 58.82C34.943 59.211 32.999 59.416 31.007 59.416C28.121 59.416 25.337 58.986 22.714 58.186C11.07 54.638 2.59704 43.81 2.59704 31.006C2.59704 15.317 15.317 2.59601 31.007 2.59601C46.696 2.59601 59.415 15.315 59.415 31.006C59.415 44.705 49.722 56.137 36.819 58.82H36.82Z" fill="#DE5833"/>
<path d="M16.312 27.339C17.138 31.989 20.491 47.626 22.131 55.439C22.598 55.608 23.074 55.765 23.554 55.909C22.059 48.721 18.334 31.409 17.449 26.466C16.532 21.319 17.424 17.624 20.851 15.741C20.7218 15.7885 20.5959 15.8443 20.474 15.908C16.942 17.769 15.383 22.123 16.312 27.338V27.339ZM17.556 13.785C19.723 13.564 22.932 13.717 25.284 14.418C25.455 14.395 25.626 14.372 25.799 14.354C23.453 13.31 20.674 12.907 18.134 13.165C18.13 12.723 18.45 12.472 18.876 12.299C18.6884 12.3274 18.505 12.3788 18.33 12.452C17.881 12.661 17.545 13.423 17.556 13.785ZM20.396 11.836C20.524 11.786 20.639 11.732 20.732 11.668C20.264 11.602 19.107 10.558 18.586 10.496C18.205 10.566 17.974 10.706 17.663 10.752C18.046 10.792 19.488 11.466 20.396 11.836V11.836Z" fill="#D5D7D8"/>
<path d="M23.5 28.687C24.019 28.687 24.5168 28.4808 24.8838 28.1138C25.2508 27.7468 25.457 27.249 25.457 26.73C25.457 26.211 25.2508 25.7132 24.8838 25.3462C24.5168 24.9792 24.019 24.773 23.5 24.773C22.9809 24.773 22.4832 24.9792 22.1162 25.3462C21.7492 25.7132 21.543 26.211 21.543 26.73C21.543 27.249 21.7492 27.7468 22.1162 28.1138C22.4832 28.4808 22.9809 28.687 23.5 28.687V28.687ZM24.374 25.573C24.5084 25.573 24.6374 25.6264 24.7325 25.7215C24.8276 25.8166 24.881 25.9455 24.881 26.08C24.881 26.2145 24.8276 26.3434 24.7325 26.4385C24.6374 26.5336 24.5084 26.587 24.374 26.587C24.2395 26.587 24.1105 26.5336 24.0155 26.4385C23.9204 26.3434 23.867 26.2145 23.867 26.08C23.867 25.9455 23.9204 25.8166 24.0155 25.7215C24.1105 25.6264 24.2395 25.573 24.374 25.573V25.573Z" fill="#2D4F8E"/>
<path d="M24.3739 26.584C24.5084 26.584 24.6374 26.5306 24.7324 26.4355C24.8275 26.3404 24.8809 26.2115 24.8809 26.077C24.8809 25.9425 24.8275 25.8136 24.7324 25.7185C24.6374 25.6234 24.5084 25.57 24.3739 25.57C24.2395 25.57 24.1105 25.6234 24.0154 25.7185C23.9204 25.8136 23.8669 25.9425 23.8669 26.077C23.8669 26.2115 23.9204 26.3404 24.0154 26.4355C24.1105 26.5306 24.2395 26.584 24.3739 26.584V26.584Z" fill="white"/>
<path d="M34.901 25.567C34.9013 26.0126 35.0785 26.4398 35.3938 26.7546C35.709 27.0695 36.1364 27.2463 36.582 27.246C37.0276 27.2457 37.4548 27.0685 37.7696 26.7532C38.0845 26.438 38.2613 26.0106 38.261 25.565C38.2609 25.3444 38.2173 25.1259 38.1327 24.9222C38.0482 24.7184 37.9243 24.5333 37.7682 24.3774C37.6121 24.2214 37.4269 24.0978 37.223 24.0135C37.0191 23.9292 36.8006 23.8859 36.58 23.886C36.3594 23.8861 36.1409 23.9297 35.9372 24.0143C35.7334 24.0988 35.5483 24.2227 35.3924 24.3788C35.2364 24.5349 35.1128 24.7201 35.0285 24.924C34.9442 25.1279 34.9009 25.3464 34.901 25.567V25.567ZM37.328 24.577C37.4434 24.5771 37.554 24.6231 37.6354 24.7048C37.7169 24.7864 37.7626 24.8971 37.7625 25.0125C37.7624 25.1279 37.7164 25.2385 37.6347 25.3199C37.5531 25.4014 37.4424 25.4471 37.327 25.447C37.2116 25.447 37.101 25.4012 37.0194 25.3196C36.9378 25.238 36.892 25.1274 36.892 25.012C36.892 24.8966 36.9378 24.786 37.0194 24.7044C37.101 24.6228 37.2116 24.577 37.327 24.577H37.328Z" fill="#2D4F8E"/>
<path d="M37.328 25.443C37.3852 25.4429 37.4417 25.4316 37.4945 25.4097C37.5472 25.3878 37.5951 25.3557 37.6355 25.3152C37.6758 25.2748 37.7078 25.2268 37.7296 25.174C37.7514 25.1212 37.7626 25.0646 37.7625 25.0075C37.7625 24.9504 37.7511 24.8938 37.7292 24.8411C37.7073 24.7883 37.6752 24.7404 37.6348 24.7001C37.5943 24.6597 37.5463 24.6277 37.4935 24.6059C37.4407 24.5841 37.3842 24.5729 37.327 24.573C37.2117 24.573 37.101 24.6188 37.0194 24.7004C36.9379 24.782 36.892 24.8926 36.892 25.008C36.892 25.1234 36.9379 25.234 37.0194 25.3156C37.101 25.3972 37.2117 25.443 37.327 25.443H37.328ZM21.156 21.296C22.588 20.392 24.065 21.064 24.065 21.064C24.065 21.064 23.074 19.762 21.043 20.589C19.018 21.419 19.778 23.115 19.778 23.115C19.778 23.115 19.725 22.195 21.156 21.295V21.296Z" fill="white"/>
<path d="M21.156 21.296C22.588 20.392 24.065 21.064 24.065 21.064C24.065 21.064 23.074 19.762 21.043 20.589C19.018 21.419 19.778 23.115 19.778 23.115C19.778 23.115 19.725 22.195 21.156 21.295V21.296Z" fill="url(#paint0_linear_1_3)"/>
<path d="M36.001 19.68C33.843 19.324 33.558 21.1 33.558 21.1C33.558 21.1 34.018 20.355 35.707 20.334C36.533 20.324 37.591 20.928 37.591 20.928C37.4477 20.606 37.228 20.324 36.9509 20.1063C36.6738 19.8886 36.3477 19.7419 36.001 19.679V19.68Z" fill="white"/>
<path d="M36.001 19.68C33.843 19.324 33.558 21.1 33.558 21.1C33.558 21.1 34.018 20.355 35.707 20.334C36.533 20.324 37.591 20.928 37.591 20.928C37.4477 20.606 37.228 20.324 36.9509 20.1063C36.6738 19.8886 36.3477 19.7419 36.001 19.679V19.68Z" fill="url(#paint1_linear_1_3)"/>
<path d="M41.493 40.62C44.541 40.557 49.54 38.699 48.993 37.2C48.444 35.701 43.476 38.517 38.29 38.037C34.452 37.682 33.775 35.962 34.623 34.705C35.693 33.125 37.641 35.005 40.853 34.043C44.069 33.082 48.568 31.368 50.236 30.433C54.094 28.279 48.62 27.39 47.328 27.986C46.107 28.554 41.845 29.629 39.863 30.105C39.756 30.13 39.657 30.155 39.565 30.175C37.756 30.609 37.085 30.578 34.915 30.713C33.192 30.824 30.905 32.259 29.941 33.44C29.692 33.743 29.531 34.033 29.492 34.277C29.344 35.182 29.698 36.069 30.202 36.778C30.562 37.281 30.994 37.694 31.377 37.958L31.387 37.965C32.308 38.604 38.444 40.675 41.493 40.619V40.62Z" fill="#FDD20A"/>
<path d="M30.077 49.044H30.073C30.073 48.819 30.253 48.62 30.539 48.451V48.475L30.543 48.48C30.543 50.886 30.215 51.99 31.099 52.31C31.15 52.329 31.206 52.345 31.266 52.358C31.846 52.49 32.704 52.482 33.488 52.37C34.022 52.296 34.52 52.174 34.878 52.017C34.903 52.007 34.928 51.994 34.951 51.984C35.025 51.949 35.091 51.911 35.151 51.872C35.2295 51.8139 35.2916 51.7364 35.331 51.647C36.988 52.287 40.341 53.516 41.064 53.247C42.034 52.875 41.794 45.112 40.702 44.864C39.828 44.669 36.489 47.022 35.169 47.985C35.1338 47.8216 35.087 47.6608 35.029 47.504C34.912 47.208 33.853 47.171 32.794 47.336C32.3433 47.4015 31.9004 47.5124 31.472 47.667C31.165 47.783 30.907 47.919 30.742 48.074C28.703 47.059 24.526 45.133 24.437 46.321C24.314 47.903 24.437 54.332 25.284 54.818C25.828 55.128 28.502 53.758 30.362 52.726C29.824 52.269 30.077 51.156 30.077 49.044V49.044Z" fill="#65BC46"/>
<path d="M34.877 52.019C34.52 52.176 34.02 52.298 33.487 52.372C32.701 52.482 31.845 52.492 31.264 52.36C31.2073 52.348 31.1515 52.332 31.097 52.312C30.213 51.992 30.541 50.888 30.541 48.482L30.537 48.477V48.453C30.25 48.623 30.071 48.821 30.071 49.046H30.075C30.075 51.156 29.824 52.271 30.357 52.728C30.4848 52.8315 30.6364 52.9013 30.798 52.931C31.558 53.101 32.786 53.034 33.708 52.815C34.115 52.72 34.463 52.594 34.688 52.445C34.786 52.379 34.862 52.257 34.916 52.097C34.928 52.062 34.938 52.025 34.949 51.987L34.877 52.019V52.019Z" fill="#43A244"/>
<path d="M31.006 2.59699C15.316 2.59699 2.59705 15.315 2.59705 31.007C2.59705 43.811 11.069 54.637 22.713 58.186C25.338 58.986 28.123 59.416 31.006 59.416C32.998 59.416 34.943 59.211 36.819 58.82C49.719 56.137 59.415 44.705 59.415 31.006C59.415 15.317 46.695 2.59599 31.006 2.59599V2.59699ZM37.093 56.277C36.267 54.687 35.503 53.239 34.918 52.097C34.864 52.257 34.79 52.377 34.689 52.445C34.465 52.593 34.117 52.72 33.711 52.815C32.786 53.034 31.561 53.098 30.801 52.931C30.6392 52.9009 30.4873 52.8312 30.359 52.728C28.499 53.76 25.828 55.13 25.282 54.82C24.435 54.334 24.312 47.905 24.435 46.323C24.526 45.133 28.703 47.061 30.741 48.076C30.907 47.921 31.163 47.783 31.47 47.669C31.8985 47.5147 32.3414 47.4042 32.792 47.339C31.577 44.068 30.786 40.543 31.377 37.959C30.9221 37.6345 30.5252 37.2356 30.203 36.779C29.698 36.069 29.344 35.182 29.493 34.277C29.533 34.033 29.694 33.745 29.941 33.44C30.905 32.259 33.19 30.822 34.916 30.713C37.085 30.578 37.756 30.609 39.565 30.175C39.657 30.152 39.756 30.13 39.863 30.105C40.967 26.187 38.306 19.388 35.323 16.411C34.353 15.439 32.864 14.829 31.181 14.511C30.537 13.621 29.492 12.776 28.015 11.985C25.118 10.4676 21.8026 9.9444 18.579 10.496H18.588C19.108 10.556 20.266 11.6 20.734 11.668C20.6286 11.7362 20.5159 11.7926 20.398 11.836C19.955 12.006 19.35 12.106 18.878 12.301C18.452 12.474 18.133 12.725 18.137 13.167C20.678 12.909 23.457 13.312 25.801 14.356C25.628 14.374 25.455 14.397 25.286 14.42C23.624 14.65 22.093 15.088 20.993 15.666C20.946 15.691 20.899 15.716 20.853 15.743C17.426 17.626 16.534 21.321 17.451 26.468C18.336 31.411 22.061 48.723 23.556 55.912C23.076 55.769 22.6 55.612 22.133 55.44C12.15 51.812 5.02205 42.242 5.02205 31.008C5.02205 16.655 16.658 5.01999 31.01 5.01999C45.363 5.01999 56.997 16.655 56.997 31.008C56.995 43.264 48.508 53.538 37.093 56.278V56.277ZM19.778 23.116C19.778 23.116 19.018 21.421 21.043 20.59C23.072 19.763 24.065 21.065 24.065 21.065C24.065 21.065 22.588 20.393 21.156 21.297C19.725 22.197 19.778 23.117 19.778 23.117V23.116ZM23.5 24.772C24.0191 24.772 24.5168 24.9782 24.8839 25.3452C25.2509 25.7122 25.457 26.21 25.457 26.729C25.457 27.248 25.2509 27.7458 24.8839 28.1128C24.5168 28.4798 24.0191 28.686 23.5 28.686C22.981 28.686 22.4832 28.4798 22.1162 28.1128C21.7492 27.7458 21.543 27.248 21.543 26.729C21.543 26.21 21.7492 25.7122 22.1162 25.3452C22.4832 24.9782 22.981 24.772 23.5 24.772V24.772ZM35.707 20.335C34.017 20.356 33.558 21.1 33.558 21.1C33.558 21.1 33.843 19.323 36.001 19.68C36.348 19.7428 36.6742 19.8895 36.9514 20.1074C37.2285 20.3253 37.4482 20.6077 37.591 20.93C37.591 20.93 36.533 20.325 35.707 20.335V20.335ZM38.259 25.568C38.2588 26.0136 38.0815 26.4408 37.7663 26.7556C37.451 27.0705 37.0236 27.2473 36.578 27.247C36.1325 27.2467 35.7053 27.0695 35.3904 26.7542C35.0755 26.439 34.8988 26.0116 34.899 25.566C34.8992 25.3454 34.9428 25.1269 35.0273 24.9232C35.1119 24.7194 35.2357 24.5343 35.3918 24.3783C35.5479 24.2224 35.7332 24.0988 35.9371 24.0145C36.1409 23.9302 36.3594 23.8869 36.58 23.887C36.8007 23.8871 37.0191 23.9307 37.2229 24.0153C37.4267 24.0998 37.6118 24.2237 37.7677 24.3798C37.9236 24.5359 38.0472 24.7211 38.1315 24.925C38.2159 25.1289 38.2592 25.3474 38.259 25.568V25.568Z" fill="white"/>
<path fill-rule="evenodd" clip-rule="evenodd" d="M30.997 56.663C45.172 56.663 56.663 45.172 56.663 30.997C56.663 16.821 45.172 5.33 30.997 5.33C16.82 5.33 5.32996 16.821 5.32996 30.997C5.32996 45.172 16.821 56.663 30.997 56.663ZM59.413 30.997C59.413 46.691 46.691 59.413 30.997 59.413C15.303 59.413 2.57996 46.691 2.57996 30.997C2.57996 15.303 15.303 2.58 30.997 2.58C46.691 2.58 59.413 15.303 59.413 30.997V30.997Z" fill="white"/>
<path fill-rule="evenodd" clip-rule="evenodd" d="M78.9201 22.704H72.3691L72.2271 22.729V40.997H78.9191C85.2651 40.997 88.104 36.307 88.104 31.657C88.104 27.345 85.2311 22.704 78.9201 22.704V22.704ZM78.9201 25.148C83.5241 25.148 85.5861 28.404 85.5861 31.633C85.5861 34.791 83.8411 38.476 78.9201 38.476H74.7461V25.148H78.9201ZM96.4361 38.962C98.6161 38.942 100.199 37.261 100.199 34.974L100.201 28.022H102.591V40.992H100.387L100.296 39.214C99.2221 40.505 97.7791 41.177 96.0021 41.199H96.0001C92.5601 41.199 90.3351 38.839 90.3351 35.177V28.021H92.7251V35.15C92.7251 37.534 94.1131 38.962 96.4361 38.962V38.962ZM116.571 39.035L115.082 37.545L114.978 37.649C114.167 38.485 113.028 38.94 111.769 38.94C109.587 38.94 107.387 37.573 107.387 34.509C107.387 31.899 109.199 30.075 111.793 30.075C112.957 30.075 114.09 30.527 114.903 31.32L115.006 31.418L116.539 29.827L116.436 29.729C115.124 28.44 113.542 27.786 111.739 27.786C107.687 27.786 104.969 30.486 104.969 34.509C104.969 39.15 108.368 41.226 111.739 41.226C113.618 41.226 115.243 40.556 116.567 39.233L116.67 39.132L116.571 39.035V39.035ZM128.836 28.022V28.352L123.037 34.151L129.552 40.642V41H126.783L121 35.215V41H118.632V22.731H121V33.16L126.011 28.022H128.836V28.022ZM138.14 22.704H131.591L131.445 22.729V40.997H138.133C144.482 40.997 147.321 36.307 147.321 31.657C147.328 27.345 144.453 22.704 138.14 22.704V22.704ZM138.14 25.148C142.744 25.148 144.808 28.404 144.808 31.633C144.808 34.791 143.063 38.476 138.14 38.476H133.968V25.148H138.14ZM155.654 38.962C157.838 38.942 159.42 37.261 159.42 34.974H159.419V28.022H161.811V40.992H159.606L159.513 39.214C158.439 40.505 156.996 41.177 155.22 41.199H155.218C151.78 41.199 149.554 38.839 149.554 35.177V28.021H151.944V35.15C151.944 37.534 153.334 38.962 155.654 38.962V38.962ZM175.793 39.035L174.303 37.545L174.203 37.649C173.391 38.485 172.252 38.94 170.992 38.94C168.811 38.94 166.61 37.573 166.61 34.509C166.61 31.899 168.422 30.075 171.013 30.075C172.173 30.0725 173.288 30.5186 174.126 31.32L174.229 31.418L175.761 29.827L175.657 29.729C174.345 28.44 172.765 27.786 170.961 27.786C166.909 27.786 164.19 30.486 164.19 34.509C164.19 39.15 167.593 41.226 170.961 41.226C172.84 41.226 174.465 40.556 175.789 39.233L175.893 39.132L175.793 39.035V39.035ZM188.056 28.022V28.352L182.257 34.151L188.776 40.642V41H186.006L180.22 35.215V41H177.855V22.731H180.22V33.16L185.233 28.022H188.056V28.022ZM203.412 33.136H197.814V30.873H205.726V38.187L205.689 38.226C203.736 40.315 201.424 41.33 198.623 41.33C191.597 41.33 189.105 36.314 189.105 32.017C189.089 29.227 190.037 26.731 191.767 24.992C193.474 23.277 195.837 22.37 198.597 22.37C201.128 22.37 203.507 23.342 205.3 25.109L205.394 25.201L203.923 26.907L203.816 26.801C202.494 25.528 200.495 24.736 198.599 24.736C193.788 24.736 191.599 28.51 191.599 32.018C191.599 35.462 193.779 38.94 198.648 38.94C200.418 38.94 202.063 38.336 203.412 37.193V33.136V33.136ZM214.365 27.738C210.472 27.738 207.646 30.597 207.646 34.535C207.646 38.413 210.472 41.227 214.365 41.227C218.271 41.227 221.109 38.413 221.109 34.535C221.109 30.532 218.334 27.738 214.365 27.738ZM214.365 38.963C211.857 38.963 210.037 37.108 210.037 34.535C210.037 31.836 211.828 29.952 214.391 29.952C216.913 29.952 218.745 31.879 218.745 34.534C218.716 37.144 216.916 38.963 214.365 38.963V38.963Z" fill="white"/>
<path fill-rule="evenodd" clip-rule="evenodd" d="M31 62C48.12 62 62 48.12 62 31C62 13.88 48.12 0 31 0C13.88 0 0 13.88 0 31C0 48.12 13.88 62 31 62Z" fill="#DE5833"/>
<path d="M31.0059 5.02C16.6539 5.02 5.01794 16.655 5.01794 31.008C5.01794 42.242 12.1469 51.812 22.1279 55.44C20.4909 47.626 17.1379 31.988 16.3119 27.339C15.3819 22.121 16.9419 17.767 20.4739 15.909C20.5879 15.849 20.7139 15.795 20.8509 15.741C20.8989 15.716 20.9439 15.689 20.9909 15.664C22.0909 15.084 23.6209 14.647 25.2839 14.418C22.9339 13.717 19.7229 13.564 17.5559 13.785C17.5459 13.423 17.8809 12.658 18.3299 12.452C18.4969 12.377 18.6819 12.33 18.8759 12.299C19.3499 12.104 19.9529 12.003 20.3959 11.834C19.4879 11.464 18.0439 10.792 17.6649 10.752C17.9749 10.705 18.2049 10.566 18.5879 10.496H18.5789C21.8025 9.94306 25.1183 10.4663 28.0149 11.985C29.4919 12.775 30.5359 13.622 31.1809 14.511C32.8659 14.831 34.3529 15.441 35.3239 16.411C38.3059 19.388 40.9669 26.187 39.8639 30.105C41.8439 29.629 46.1059 28.555 47.3279 27.985C48.6189 27.392 54.0939 28.279 50.2359 30.434C48.5679 31.368 44.0689 33.084 40.8519 34.044C37.6389 35.004 35.6919 33.124 34.6229 34.704C33.7769 35.96 34.4529 37.68 38.2899 38.037C43.4759 38.517 48.4439 35.703 48.9919 37.2C49.5399 38.699 44.5389 40.557 41.4919 40.62C38.4459 40.677 32.3079 38.606 31.3889 37.965L31.3789 37.959C30.7879 40.543 31.5789 44.068 32.7939 47.339C33.8539 47.175 34.9109 47.212 35.0289 47.506C35.0689 47.606 35.1169 47.773 35.1689 47.988C36.4889 47.024 39.8289 44.672 40.7019 44.866C41.7919 45.114 42.0339 52.876 41.0639 53.249C40.3389 53.519 36.9859 52.289 35.3319 51.649C35.2935 51.7393 35.2309 51.8171 35.1509 51.874C35.0929 51.914 35.0249 51.951 34.9509 51.986C34.9409 52.026 34.9309 52.06 34.9179 52.096C35.5029 53.239 36.2669 54.686 37.0929 56.276C48.5079 53.538 56.9949 43.264 56.9949 31.006C56.9949 16.655 45.3589 5.02 31.0059 5.02V5.02Z" fill="#DE5833"/>
<path d="M31.006 0.0140076C13.891 0.0140076 0.0140381 13.891 0.0140381 31.006C0.0140381 46.757 11.764 59.763 26.977 61.737C29.2885 62.0379 31.6264 62.0788 33.947 61.859C49.684 60.377 61.996 47.129 61.996 31.006C61.998 13.891 48.123 0.0140076 31.006 0.0140076ZM36.82 58.82C34.943 59.211 32.999 59.416 31.007 59.416C28.121 59.416 25.337 58.986 22.714 58.186C11.07 54.638 2.59704 43.81 2.59704 31.006C2.59704 15.317 15.317 2.59601 31.007 2.59601C46.696 2.59601 59.415 15.315 59.415 31.006C59.415 44.705 49.722 56.137 36.819 58.82H36.82Z" fill="#DE5833"/>
<path d="M16.312 27.339C17.138 31.989 20.491 47.626 22.131 55.439C22.598 55.608 23.074 55.765 23.554 55.909C22.059 48.721 18.334 31.409 17.449 26.466C16.532 21.319 17.424 17.624 20.851 15.741C20.7218 15.7885 20.5959 15.8443 20.474 15.908C16.942 17.769 15.383 22.123 16.312 27.338V27.339ZM17.556 13.785C19.723 13.564 22.932 13.717 25.284 14.418C25.455 14.395 25.626 14.372 25.799 14.354C23.453 13.31 20.674 12.907 18.134 13.165C18.13 12.723 18.45 12.472 18.876 12.299C18.6884 12.3274 18.505 12.3788 18.33 12.452C17.881 12.661 17.545 13.423 17.556 13.785ZM20.396 11.836C20.524 11.786 20.639 11.732 20.732 11.668C20.264 11.602 19.107 10.558 18.586 10.496C18.205 10.566 17.974 10.706 17.663 10.752C18.046 10.792 19.488 11.466 20.396 11.836V11.836Z" fill="#D5D7D8"/>
<path d="M23.5 28.687C24.019 28.687 24.5168 28.4808 24.8838 28.1138C25.2508 27.7468 25.457 27.249 25.457 26.73C25.457 26.211 25.2508 25.7132 24.8838 25.3462C24.5168 24.9792 24.019 24.773 23.5 24.773C22.9809 24.773 22.4832 24.9792 22.1162 25.3462C21.7492 25.7132 21.543 26.211 21.543 26.73C21.543 27.249 21.7492 27.7468 22.1162 28.1138C22.4832 28.4808 22.9809 28.687 23.5 28.687V28.687ZM24.374 25.573C24.5084 25.573 24.6374 25.6264 24.7325 25.7215C24.8276 25.8166 24.881 25.9455 24.881 26.08C24.881 26.2145 24.8276 26.3434 24.7325 26.4385C24.6374 26.5336 24.5084 26.587 24.374 26.587C24.2395 26.587 24.1105 26.5336 24.0155 26.4385C23.9204 26.3434 23.867 26.2145 23.867 26.08C23.867 25.9455 23.9204 25.8166 24.0155 25.7215C24.1105 25.6264 24.2395 25.573 24.374 25.573V25.573Z" fill="#2D4F8E"/>
<path d="M24.3739 26.584C24.5084 26.584 24.6374 26.5306 24.7324 26.4355C24.8275 26.3404 24.8809 26.2115 24.8809 26.077C24.8809 25.9425 24.8275 25.8136 24.7324 25.7185C24.6374 25.6234 24.5084 25.57 24.3739 25.57C24.2395 25.57 24.1105 25.6234 24.0154 25.7185C23.9204 25.8136 23.8669 25.9425 23.8669 26.077C23.8669 26.2115 23.9204 26.3404 24.0154 26.4355C24.1105 26.5306 24.2395 26.584 24.3739 26.584V26.584Z" fill="white"/>
<path d="M34.901 25.567C34.9013 26.0126 35.0785 26.4398 35.3938 26.7546C35.709 27.0695 36.1364 27.2463 36.582 27.246C37.0276 27.2457 37.4548 27.0685 37.7696 26.7532C38.0845 26.438 38.2613 26.0106 38.261 25.565C38.2609 25.3444 38.2173 25.1259 38.1327 24.9222C38.0482 24.7184 37.9243 24.5333 37.7682 24.3774C37.6121 24.2214 37.4269 24.0978 37.223 24.0135C37.0191 23.9292 36.8006 23.8859 36.58 23.886C36.3594 23.8861 36.1409 23.9297 35.9372 24.0143C35.7334 24.0988 35.5483 24.2227 35.3924 24.3788C35.2364 24.5349 35.1128 24.7201 35.0285 24.924C34.9442 25.1279 34.9009 25.3464 34.901 25.567V25.567ZM37.328 24.577C37.4434 24.5771 37.554 24.6231 37.6354 24.7048C37.7169 24.7864 37.7626 24.8971 37.7625 25.0125C37.7624 25.1279 37.7164 25.2385 37.6347 25.3199C37.5531 25.4014 37.4424 25.4471 37.327 25.447C37.2116 25.447 37.101 25.4012 37.0194 25.3196C36.9378 25.238 36.892 25.1274 36.892 25.012C36.892 24.8966 36.9378 24.786 37.0194 24.7044C37.101 24.6228 37.2116 24.577 37.327 24.577H37.328Z" fill="#2D4F8E"/>
<path d="M37.328 25.443C37.3852 25.4429 37.4417 25.4316 37.4945 25.4097C37.5472 25.3878 37.5951 25.3557 37.6355 25.3152C37.6758 25.2748 37.7078 25.2268 37.7296 25.174C37.7514 25.1212 37.7626 25.0646 37.7625 25.0075C37.7625 24.9504 37.7511 24.8938 37.7292 24.8411C37.7073 24.7883 37.6752 24.7404 37.6348 24.7001C37.5943 24.6597 37.5463 24.6277 37.4935 24.6059C37.4407 24.5841 37.3842 24.5729 37.327 24.573C37.2117 24.573 37.101 24.6188 37.0194 24.7004C36.9379 24.782 36.892 24.8926 36.892 25.008C36.892 25.1234 36.9379 25.234 37.0194 25.3156C37.101 25.3972 37.2117 25.443 37.327 25.443H37.328ZM21.156 21.296C22.588 20.392 24.065 21.064 24.065 21.064C24.065 21.064 23.074 19.762 21.043 20.589C19.018 21.419 19.778 23.115 19.778 23.115C19.778 23.115 19.725 22.195 21.156 21.295V21.296Z" fill="white"/>
<path d="M21.156 21.296C22.588 20.392 24.065 21.064 24.065 21.064C24.065 21.064 23.074 19.762 21.043 20.589C19.018 21.419 19.778 23.115 19.778 23.115C19.778 23.115 19.725 22.195 21.156 21.295V21.296Z" fill="url(#paint2_linear_1_3)"/>
<path d="M36.001 19.68C33.843 19.324 33.558 21.1 33.558 21.1C33.558 21.1 34.018 20.355 35.707 20.334C36.533 20.324 37.591 20.928 37.591 20.928C37.4477 20.606 37.228 20.324 36.9509 20.1063C36.6738 19.8886 36.3477 19.7419 36.001 19.679V19.68Z" fill="white"/>
<path d="M36.001 19.68C33.843 19.324 33.558 21.1 33.558 21.1C33.558 21.1 34.018 20.355 35.707 20.334C36.533 20.324 37.591 20.928 37.591 20.928C37.4477 20.606 37.228 20.324 36.9509 20.1063C36.6738 19.8886 36.3477 19.7419 36.001 19.679V19.68Z" fill="url(#paint3_linear_1_3)"/>
<path d="M41.493 40.62C44.541 40.557 49.54 38.699 48.993 37.2C48.444 35.701 43.476 38.517 38.29 38.037C34.452 37.682 33.775 35.962 34.623 34.705C35.693 33.125 37.641 35.005 40.853 34.043C44.069 33.082 48.568 31.368 50.236 30.433C54.094 28.279 48.62 27.39 47.328 27.986C46.107 28.554 41.845 29.629 39.863 30.105C39.756 30.13 39.657 30.155 39.565 30.175C37.756 30.609 37.085 30.578 34.915 30.713C33.192 30.824 30.905 32.259 29.941 33.44C29.692 33.743 29.531 34.033 29.492 34.277C29.344 35.182 29.698 36.069 30.202 36.778C30.562 37.281 30.994 37.694 31.377 37.958L31.387 37.965C32.308 38.604 38.444 40.675 41.493 40.619V40.62Z" fill="#FDD20A"/>
<path d="M30.077 49.044H30.073C30.073 48.819 30.253 48.62 30.539 48.451V48.475L30.543 48.48C30.543 50.886 30.215 51.99 31.099 52.31C31.15 52.329 31.206 52.345 31.266 52.358C31.846 52.49 32.704 52.482 33.488 52.37C34.022 52.296 34.52 52.174 34.878 52.017C34.903 52.007 34.928 51.994 34.951 51.984C35.025 51.949 35.091 51.911 35.151 51.872C35.2295 51.8139 35.2916 51.7364 35.331 51.647C36.988 52.287 40.341 53.516 41.064 53.247C42.034 52.875 41.794 45.112 40.702 44.864C39.828 44.669 36.489 47.022 35.169 47.985C35.1338 47.8216 35.087 47.6608 35.029 47.504C34.912 47.208 33.853 47.171 32.794 47.336C32.3433 47.4015 31.9004 47.5124 31.472 47.667C31.165 47.783 30.907 47.919 30.742 48.074C28.703 47.059 24.526 45.133 24.437 46.321C24.314 47.903 24.437 54.332 25.284 54.818C25.828 55.128 28.502 53.758 30.362 52.726C29.824 52.269 30.077 51.156 30.077 49.044V49.044Z" fill="#65BC46"/>
<path d="M34.877 52.019C34.52 52.176 34.02 52.298 33.487 52.372C32.701 52.482 31.845 52.492 31.264 52.36C31.2073 52.348 31.1515 52.332 31.097 52.312C30.213 51.992 30.541 50.888 30.541 48.482L30.537 48.477V48.453C30.25 48.623 30.071 48.821 30.071 49.046H30.075C30.075 51.156 29.824 52.271 30.357 52.728C30.4848 52.8315 30.6364 52.9013 30.798 52.931C31.558 53.101 32.786 53.034 33.708 52.815C34.115 52.72 34.463 52.594 34.688 52.445C34.786 52.379 34.862 52.257 34.916 52.097C34.928 52.062 34.938 52.025 34.949 51.987L34.877 52.019V52.019Z" fill="#43A244"/>
<path d="M31.006 2.59699C15.316 2.59699 2.59705 15.315 2.59705 31.007C2.59705 43.811 11.069 54.637 22.713 58.186C25.338 58.986 28.123 59.416 31.006 59.416C32.998 59.416 34.943 59.211 36.819 58.82C49.719 56.137 59.415 44.705 59.415 31.006C59.415 15.317 46.695 2.59599 31.006 2.59599V2.59699ZM37.093 56.277C36.267 54.687 35.503 53.239 34.918 52.097C34.864 52.257 34.79 52.377 34.689 52.445C34.465 52.593 34.117 52.72 33.711 52.815C32.786 53.034 31.561 53.098 30.801 52.931C30.6392 52.9009 30.4873 52.8312 30.359 52.728C28.499 53.76 25.828 55.13 25.282 54.82C24.435 54.334 24.312 47.905 24.435 46.323C24.526 45.133 28.703 47.061 30.741 48.076C30.907 47.921 31.163 47.783 31.47 47.669C31.8985 47.5147 32.3414 47.4042 32.792 47.339C31.577 44.068 30.786 40.543 31.377 37.959C30.9221 37.6345 30.5252 37.2356 30.203 36.779C29.698 36.069 29.344 35.182 29.493 34.277C29.533 34.033 29.694 33.745 29.941 33.44C30.905 32.259 33.19 30.822 34.916 30.713C37.085 30.578 37.756 30.609 39.565 30.175C39.657 30.152 39.756 30.13 39.863 30.105C40.967 26.187 38.306 19.388 35.323 16.411C34.353 15.439 32.864 14.829 31.181 14.511C30.537 13.621 29.492 12.776 28.015 11.985C25.118 10.4676 21.8026 9.9444 18.579 10.496H18.588C19.108 10.556 20.266 11.6 20.734 11.668C20.6286 11.7362 20.5159 11.7926 20.398 11.836C19.955 12.006 19.35 12.106 18.878 12.301C18.452 12.474 18.133 12.725 18.137 13.167C20.678 12.909 23.457 13.312 25.801 14.356C25.628 14.374 25.455 14.397 25.286 14.42C23.624 14.65 22.093 15.088 20.993 15.666C20.946 15.691 20.899 15.716 20.853 15.743C17.426 17.626 16.534 21.321 17.451 26.468C18.336 31.411 22.061 48.723 23.556 55.912C23.076 55.769 22.6 55.612 22.133 55.44C12.15 51.812 5.02205 42.242 5.02205 31.008C5.02205 16.655 16.658 5.01999 31.01 5.01999C45.363 5.01999 56.997 16.655 56.997 31.008C56.995 43.264 48.508 53.538 37.093 56.278V56.277ZM19.778 23.116C19.778 23.116 19.018 21.421 21.043 20.59C23.072 19.763 24.065 21.065 24.065 21.065C24.065 21.065 22.588 20.393 21.156 21.297C19.725 22.197 19.778 23.117 19.778 23.117V23.116ZM23.5 24.772C24.0191 24.772 24.5168 24.9782 24.8839 25.3452C25.2509 25.7122 25.457 26.21 25.457 26.729C25.457 27.248 25.2509 27.7458 24.8839 28.1128C24.5168 28.4798 24.0191 28.686 23.5 28.686C22.981 28.686 22.4832 28.4798 22.1162 28.1128C21.7492 27.7458 21.543 27.248 21.543 26.729C21.543 26.21 21.7492 25.7122 22.1162 25.3452C22.4832 24.9782 22.981 24.772 23.5 24.772V24.772ZM35.707 20.335C34.017 20.356 33.558 21.1 33.558 21.1C33.558 21.1 33.843 19.323 36.001 19.68C36.348 19.7428 36.6742 19.8895 36.9514 20.1074C37.2285 20.3253 37.4482 20.6077 37.591 20.93C37.591 20.93 36.533 20.325 35.707 20.335V20.335ZM38.259 25.568C38.2588 26.0136 38.0815 26.4408 37.7663 26.7556C37.451 27.0705 37.0236 27.2473 36.578 27.247C36.1325 27.2467 35.7053 27.0695 35.3904 26.7542C35.0755 26.439 34.8988 26.0116 34.899 25.566C34.8992 25.3454 34.9428 25.1269 35.0273 24.9232C35.1119 24.7194 35.2357 24.5343 35.3918 24.3783C35.5479 24.2224 35.7332 24.0988 35.9371 24.0145C36.1409 23.9302 36.3594 23.8869 36.58 23.887C36.8007 23.8871 37.0191 23.9307 37.2229 24.0153C37.4267 24.0998 37.6118 24.2237 37.7677 24.3798C37.9236 24.5359 38.0472 24.7211 38.1315 24.925C38.2159 25.1289 38.2592 25.3474 38.259 25.568V25.568Z" fill="white"/>
<path fill-rule="evenodd" clip-rule="evenodd" d="M30.997 56.663C45.172 56.663 56.663 45.172 56.663 30.997C56.663 16.821 45.172 5.33 30.997 5.33C16.82 5.33 5.32996 16.821 5.32996 30.997C5.32996 45.172 16.821 56.663 30.997 56.663ZM59.413 30.997C59.413 46.691 46.691 59.413 30.997 59.413C15.303 59.413 2.57996 46.691 2.57996 30.997C2.57996 15.303 15.303 2.58 30.997 2.58C46.691 2.58 59.413 15.303 59.413 30.997V30.997Z" fill="white"/>
</g>
<defs>
<linearGradient id="paint0_linear_1_3" x1="19.638" y1="21.714" x2="24.064" y2="21.714" gradientUnits="userSpaceOnUse">
<stop offset="0.01" stop-color="#6176B9"/>
<stop offset="0.69" stop-color="#394A9F"/>
</linearGradient>
<linearGradient id="paint1_linear_1_3" x1="33.558" y1="20.366" x2="37.592" y2="20.366" gradientUnits="userSpaceOnUse">
<stop offset="0.01" stop-color="#6176B9"/>
<stop offset="0.69" stop-color="#394A9F"/>
</linearGradient>
<linearGradient id="paint2_linear_1_3" x1="19.638" y1="21.714" x2="24.064" y2="21.714" gradientUnits="userSpaceOnUse">
<stop offset="0.01" stop-color="#6176B9"/>
<stop offset="0.69" stop-color="#394A9F"/>
</linearGradient>
<linearGradient id="paint3_linear_1_3" x1="33.558" y1="20.366" x2="37.592" y2="20.366" gradientUnits="userSpaceOnUse">
<stop offset="0.01" stop-color="#6176B9"/>
<stop offset="0.69" stop-color="#394A9F"/>
</linearGradient>
<clipPath id="clip0_1_3">
<rect width="222" height="62" fill="white"/>
</clipPath>
</defs>
</svg>
